<svg xmlns="http://www.w3.org/2000/svg" viewBox="0 0 1600 900">
  <polygon fill="#23cccc" points="957 450 539 900 1396 900"/>
  <polygon fill="#bde1e6" points="957 450 872.9 900 1396 900"/>
  <polygon fill="#20bcbf" points="-60 900 398 662 816 900"/>
  <polygon fill="#bde1e6" points="337 900 398 662 816 900"/>
  <polygon fill="#19aeb5" points="1203 546 1552 900 876 900"/>
  <polygon fill="#8dd7e1" points="1203 546 1552 900 1162 900"/>
  <polygon fill="#13a6b0" points="641 695 886 900 367 900"/>
  <polygon fill="#61d0dd" points="587 900 641 695 886 900"/>
  <polygon fill="#098d9b" points="1710 900 1401 632 1096 900"/>
  <polygon fill="#3cc3d5" points="1710 900 1401 632 1365 900"/>
  <polygon fill="#1694a4" points="1210 900 971 687 725 900"/>
  <polygon fill="#09b2c7" points="943 900 1210 900 971 687"/>
</svg>
