<svg xmlns="http://www.w3.org/2000/svg" xmlns:xlink="http://www.w3.org/1999/xlink" version="1.1" x="0px" y="0px"
    viewBox="0 0 511.883 511.883" style="enable-background:new 0 0 511.883 511.883;" xml:space="preserve">
    <path style="fill: #61d0dd;"
        d="M287.934,90.276c0,17.676-14.324,31.992-31.992,31.992s-31.993-14.316-31.993-31.992  c0-17.668,14.325-31.993,31.993-31.993S287.934,72.608,287.934,90.276z">
    </path>
    <path style="fill: #bde1e6;"
        d="M255.95,90.276c-129.564,0-234.595,105.03-234.595,234.603L21.339,452.85h469.188l0.016-127.971  C490.544,195.306,385.505,90.276,255.95,90.276z">
    </path>
    <path style="fill:#F5F7FA;"
        d="M255.942,366.806c204.703,0,254.473,77.67,254.473,77.67c3.218,5.03,0.969,9.123-4.999,9.123H6.468  c-5.968,0-8.217-4.093-4.999-9.123C1.469,444.476,51.247,366.806,255.942,366.806z">
    </path>
    <polygon style="fill: #20bcbf;" points="149.302,314.224 210.242,212.662 271.172,314.224 "></polygon>
    <polygon style="fill: #61d0dd;" points="200.08,314.224 281.342,172.039 362.573,314.224 "></polygon>
    <path style="fill:#E6E9ED;"
        d="M255.942,415.202c-151.73,0-238.727,37.304-238.727,37.304l477.453,1.094  C494.669,453.599,407.672,415.202,255.942,415.202z">
    </path>
</svg>
